<?xml version="1.0" encoding="UTF-8" standalone="no"?>
<!-- Created with Inkscape (http://www.inkscape.org/) -->

<svg
   xmlns:dc="http://purl.org/dc/elements/1.1/"
   xmlns:cc="http://creativecommons.org/ns#"
   xmlns:rdf="http://www.w3.org/1999/02/22-rdf-syntax-ns#"
   xmlns:svg="http://www.w3.org/2000/svg"
   xmlns="http://www.w3.org/2000/svg"
   xmlns:xlink="http://www.w3.org/1999/xlink"
   xmlns:sodipodi="http://sodipodi.sourceforge.net/DTD/sodipodi-0.dtd"
   xmlns:inkscape="http://www.inkscape.org/namespaces/inkscape"
   width="744.09448819"
   height="1052.3622047"
   id="svg2"
   version="1.1"
   inkscape:version="0.48.4 r9939"
   sodipodi:docname="idea.svg">
  <defs
     id="defs4">
    <linearGradient
       inkscape:collect="always"
       id="linearGradient3901">
      <stop
         style="stop-color:#d45500;stop-opacity:1;"
         offset="0"
         id="stop3903" />
      <stop
         style="stop-color:#9e3f00;stop-opacity:1"
         offset="1"
         id="stop3905" />
    </linearGradient>
    <inkscape:perspective
       sodipodi:type="inkscape:persp3d"
       inkscape:vp_x="0 : 526.18109 : 1"
       inkscape:vp_y="0 : 1000 : 0"
       inkscape:vp_z="744.09448 : 526.18109 : 1"
       inkscape:persp3d-origin="372.04724 : 350.78739 : 1"
       id="perspective3004" />
    <linearGradient
       inkscape:collect="always"
       xlink:href="#linearGradient3901"
       id="linearGradient3907"
       x1="209.16541"
       y1="434.58469"
       x2="209.16541"
       y2="324.9711"
       gradientUnits="userSpaceOnUse" />
  </defs>
  <sodipodi:namedview
     id="base"
     pagecolor="#ffffff"
     bordercolor="#666666"
     borderopacity="1.0"
     inkscape:pageopacity="0.0"
     inkscape:pageshadow="2"
     inkscape:zoom="1.4142136"
     inkscape:cx="178.24792"
     inkscape:cy="760.72905"
     inkscape:document-units="px"
     inkscape:current-layer="layer1"
     showgrid="false"
     inkscape:window-width="1920"
     inkscape:window-height="978"
     inkscape:window-x="0"
     inkscape:window-y="31"
     inkscape:window-maximized="1">
    <inkscape:grid
       type="xygrid"
       id="grid3020" />
  </sodipodi:namedview>
  <metadata
     id="metadata7">
    <rdf:RDF>
      <cc:Work
         rdf:about="">
        <dc:format>image/svg+xml</dc:format>
        <dc:type
           rdf:resource="http://purl.org/dc/dcmitype/StillImage" />
        <dc:title></dc:title>
      </cc:Work>
    </rdf:RDF>
  </metadata>
  <g
     inkscape:label="Layer 1"
     inkscape:groupmode="layer"
     id="layer1">
    <g
       id="g3946"
       transform="matrix(0.67388366,0.24711809,-0.24711809,0.67388366,124.4985,85.573697)">
      <path
         inkscape:connector-curvature="0"
         id="path3948"
         d="M 105.81213,439.65415 61.97151,418.0874 35.808564,495.51559 67.98192,432.22953 l 37.83021,10.6066 z"
         style="fill:#501616;fill-opacity:1;stroke:#000000;stroke-width:1px;stroke-linecap:butt;stroke-linejoin:miter;stroke-opacity:1" />
      <path
         sodipodi:nodetypes="cccccc"
         style="fill:#a05a2c;fill-opacity:1;stroke:none"
         d="M 104.75147,440.0077 62.85539,419.32484 35.808564,495.51559 64.79994,423.92103 105.10502,440.89159 z"
         id="path3950"
         inkscape:connector-curvature="0" />
      <path
         transform="matrix(-0.76067155,0,0,0.76067155,216.81475,98.727635)"
         d="m 209.5,425.48718 c 0,4.48732 -3.63769,8.125 -8.125,8.125 -4.48731,0 -8.125,-3.63768 -8.125,-8.125 0,-4.48731 3.63769,-8.125 8.125,-8.125 4.48731,0 8.125,3.63769 8.125,8.125 z"
         sodipodi:ry="8.125"
         sodipodi:rx="8.125"
         sodipodi:cy="425.48718"
         sodipodi:cx="201.375"
         id="path3952"
         style="fill:#a05a2c;fill-opacity:1;stroke:none"
         sodipodi:type="arc" />
    </g>
    <g
       transform="matrix(-0.67388366,0.24711809,0.24711809,0.67388366,138.83701,85.573697)"
       id="g3954">
      <path
         style="fill:#501616;fill-opacity:1;stroke:#000000;stroke-width:1px;stroke-linecap:butt;stroke-linejoin:miter;stroke-opacity:1"
         d="M 105.81213,439.65415 61.97151,418.0874 35.808564,495.51559 67.98192,432.22953 l 37.83021,10.6066 z"
         id="path3956"
         inkscape:connector-curvature="0" />
      <path
         inkscape:connector-curvature="0"
         id="path3958"
         d="M 104.75147,440.0077 62.85539,419.32484 35.808564,495.51559 64.79994,423.92103 105.10502,440.89159 z"
         style="fill:#a05a2c;fill-opacity:1;stroke:none"
         sodipodi:nodetypes="cccccc" />
      <path
         sodipodi:type="arc"
         style="fill:#a05a2c;fill-opacity:1;stroke:none"
         id="path3960"
         sodipodi:cx="201.375"
         sodipodi:cy="425.48718"
         sodipodi:rx="8.125"
         sodipodi:ry="8.125"
         d="m 209.5,425.48718 c 0,4.48732 -3.63769,8.125 -8.125,8.125 -4.48731,0 -8.125,-3.63768 -8.125,-8.125 0,-4.48731 3.63769,-8.125 8.125,-8.125 4.48731,0 8.125,3.63769 8.125,8.125 z"
         transform="matrix(-0.76067155,0,0,0.76067155,216.81475,98.727635)" />
    </g>
    <path
       style="fill:#501616;stroke:#000000;stroke-width:1px;stroke-linecap:butt;stroke-linejoin:miter;stroke-opacity:1"
       d="m 75,393.36218 c 0,0 -4,61 57,74 0,0 55,-9 56,-73 0,0 -42,-25 -113,-1 z"
       id="path3044"
       inkscape:connector-curvature="0"
       sodipodi:nodetypes="cccc" />
    <path
       sodipodi:type="arc"
       style="fill:#a02c2c"
       id="path3042"
       sodipodi:cx="130.5"
       sodipodi:cy="395.36218"
       sodipodi:rx="57.5"
       sodipodi:ry="32"
       d="m 188,395.36218 a 57.5,32 0 1 1 -115,0 57.5,32 0 1 1 115,0 z"
       transform="translate(1,1)" />
    <path
       transform="matrix(0.59130434,0,0,0.703125,53.834783,111.87315)"
       d="m 188,395.36218 a 57.5,32 0 1 1 -115,0 57.5,32 0 1 1 115,0 z"
       sodipodi:ry="32"
       sodipodi:rx="57.5"
       sodipodi:cy="395.36218"
       sodipodi:cx="130.5"
       id="path3046"
       style="fill:#501616"
       sodipodi:type="arc" />
    <path
       sodipodi:type="arc"
       style="fill:url(#linearGradient3907);fill-rule:evenodd;stroke:#000000;stroke-width:1px;stroke-linecap:butt;stroke-linejoin:miter;stroke-opacity:1;fill-opacity:1"
       id="path3022"
       sodipodi:cx="208.57143"
       sodipodi:cy="392.36218"
       sodipodi:rx="65.714287"
       sodipodi:ry="71.428574"
       d="m 274.28571,392.36218 a 65.714287,71.428574 0 1 1 -131.42857,0 65.714287,71.428574 0 1 1 131.42857,0 z"
       transform="matrix(0.78855427,0,0,0.79146993,-35.184172,32.81931)" />
    <path
       style="fill:#a05a2c;stroke:#000000;stroke-width:0.80512446000000004px;stroke-linecap:butt;stroke-linejoin:miter;stroke-opacity:1"
       d="m 83.930696,326.95962 c 0,0 -41.063301,-51.13087 0,-71.19488 0,0 -21.032422,23.94737 12.018527,51.13087 z"
       id="path3036"
       inkscape:connector-curvature="0"
       sodipodi:nodetypes="cccc" />
    <path
       sodipodi:nodetypes="cccc"
       inkscape:connector-curvature="0"
       id="path3038"
       d="m 173.84708,326.95962 c 0,0 41.0633,-51.13087 0,-71.19488 0,0 21.03243,23.94737 -12.01852,51.13087 z"
       style="fill:#a05a2c;stroke:#000000;stroke-width:0.80512446000000004px;stroke-linecap:butt;stroke-linejoin:miter;stroke-opacity:1" />
    <path
       sodipodi:type="arc"
       style="fill:#280b0b;stroke:#000000"
       id="path3048"
       sodipodi:cx="97.5"
       sodipodi:cy="474.86218"
       sodipodi:rx="10.5"
       sodipodi:ry="9.5"
       d="m 108,474.86218 a 10.5,9.5 0 1 1 -21,0 10.5,9.5 0 1 1 21,0 z"
       transform="matrix(0.89519917,-0.44566629,0.28147345,0.56538895,-63.462043,215.44374)" />
    <path
       sodipodi:type="arc"
       style="fill:#ffd5d5;fill-opacity:1;stroke:#782121;stroke-opacity:1"
       id="path3858"
       sodipodi:cx="108.89445"
       sodipodi:cy="348.93063"
       sodipodi:rx="11.667262"
       sodipodi:ry="18.878027"
       d="m 120.56171,348.93063 a 11.667262,18.878027 0 1 1 -23.334525,0 11.667262,18.878027 0 1 1 23.334525,0 z"
       transform="matrix(0.96592583,-0.25881905,0.25881905,0.96592583,-86.599405,40.07348)" />
    <path
       d="m 120.56171,348.93063 a 11.667262,18.878027 0 1 1 -23.334525,0 11.667262,18.878027 0 1 1 23.334525,0 z"
       sodipodi:ry="18.878027"
       sodipodi:rx="11.667262"
       sodipodi:cy="348.93063"
       sodipodi:cx="108.89445"
       id="path3860"
       style="fill:#782121;fill-opacity:1;stroke:#782121;stroke-opacity:1"
       sodipodi:type="arc"
       transform="matrix(0.60396822,-0.1618328,0.17833562,0.66555759,-18.618384,136.80443)" />
    <path
       transform="matrix(0.18029593,0.67287357,-0.26505027,0.07102001,183.465,257.49512)"
       sodipodi:type="arc"
       style="fill:#ff9955;fill-opacity:1;stroke:#782121;stroke-opacity:1"
       id="path3862"
       sodipodi:cx="108.89445"
       sodipodi:cy="348.93063"
       sodipodi:rx="11.667262"
       sodipodi:ry="18.878027"
       d="m 120.56171,348.93063 a 11.667262,18.878027 0 1 1 -23.334525,0 11.667262,18.878027 0 1 1 23.334525,0 z" />
    <path
       transform="matrix(-0.96592583,-0.25881905,-0.25881905,0.96592583,346.6383,40.07348)"
       d="m 120.56171,348.93063 a 11.667262,18.878027 0 1 1 -23.334525,0 11.667262,18.878027 0 1 1 23.334525,0 z"
       sodipodi:ry="18.878027"
       sodipodi:rx="11.667262"
       sodipodi:cy="348.93063"
       sodipodi:cx="108.89445"
       id="path3870"
       style="fill:#ffd5d5;fill-opacity:1;stroke:#782121;stroke-opacity:1"
       sodipodi:type="arc" />
    <path
       transform="matrix(-0.60396822,-0.1618328,-0.17833562,0.66555759,278.65728,136.80443)"
       sodipodi:type="arc"
       style="fill:#782121;fill-opacity:1;stroke:#782121;stroke-opacity:1"
       id="path3872"
       sodipodi:cx="108.89445"
       sodipodi:cy="348.93063"
       sodipodi:rx="11.667262"
       sodipodi:ry="18.878027"
       d="m 120.56171,348.93063 a 11.667262,18.878027 0 1 1 -23.334525,0 11.667262,18.878027 0 1 1 23.334525,0 z" />
    <path
       d="m 120.56171,348.93063 a 11.667262,18.878027 0 1 1 -23.334525,0 11.667262,18.878027 0 1 1 23.334525,0 z"
       sodipodi:ry="18.878027"
       sodipodi:rx="11.667262"
       sodipodi:cy="348.93063"
       sodipodi:cx="108.89445"
       id="path3874"
       style="fill:#ff9955;fill-opacity:1;stroke:#782121;stroke-opacity:1"
       sodipodi:type="arc"
       transform="matrix(-0.18029593,0.67287357,0.26505027,0.07102001,76.573899,257.49512)" />
    <path
       style="fill:none;stroke:#782121;stroke-width:1px;stroke-linecap:butt;stroke-linejoin:miter;stroke-opacity:1"
       d="m 100.05561,386.62115 c 19.18004,-12.14701 41.24185,-13.55041 61.51829,-2.82843"
       id="path3897"
       inkscape:connector-curvature="0"
       sodipodi:nodetypes="cc" />
    <path
       sodipodi:nodetypes="cc"
       inkscape:connector-curvature="0"
       id="path3899"
       d="m 104.11251,386.47796 c 16.72828,-10.59428 35.96996,-11.81828 53.65449,-2.46688"
       style="fill:none;stroke:#ff7f2a;stroke-width:0.87217146px;stroke-linecap:butt;stroke-linejoin:miter;stroke-opacity:1" />
    <path
       style="fill:#501616;fill-opacity:1;stroke:#000000;stroke-width:1px;stroke-linecap:butt;stroke-linejoin:miter;stroke-opacity:1"
       d="m 155.91705,439.65415 43.84062,-21.56675 26.16295,77.42819 -32.17336,-63.28606 -37.83021,10.6066 z"
       id="path3909"
       inkscape:connector-curvature="0" />
    <path
       inkscape:connector-curvature="0"
       id="path3911"
       d="m 156.97771,440.0077 41.89608,-20.68286 27.04683,76.19075 -28.99138,-71.59456 -40.30508,16.97056 z"
       style="fill:#a05a2c;fill-opacity:1;stroke:none"
       sodipodi:nodetypes="cccccc" />
    <path
       sodipodi:type="arc"
       style="fill:#a05a2c;fill-opacity:1;stroke:none"
       id="path3927"
       sodipodi:cx="201.375"
       sodipodi:cy="425.48718"
       sodipodi:rx="8.125"
       sodipodi:ry="8.125"
       d="m 209.5,425.48718 a 8.125,8.125 0 1 1 -16.25,0 8.125,8.125 0 1 1 16.25,0 z"
       transform="matrix(0.76067155,0,0,0.76067155,44.914436,98.727635)" />
    <path
       transform="matrix(-0.89519917,-0.44566629,-0.28147345,0.56538895,325.19122,215.44374)"
       d="m 108,474.86218 a 10.5,9.5 0 1 1 -21,0 10.5,9.5 0 1 1 21,0 z"
       sodipodi:ry="9.5"
       sodipodi:rx="10.5"
       sodipodi:cy="474.86218"
       sodipodi:cx="97.5"
       id="path3933"
       style="fill:#280b0b;stroke:#000000"
       sodipodi:type="arc" />
    <g
       id="g3941">
      <path
         style="fill:#501616;fill-opacity:1;stroke:#000000;stroke-width:1px;stroke-linecap:butt;stroke-linejoin:miter;stroke-opacity:1"
         d="M 105.81213,439.65415 61.97151,418.0874 35.808564,495.51559 67.98192,432.22953 l 37.83021,10.6066 z"
         id="path3935"
         inkscape:connector-curvature="0" />
      <path
         inkscape:connector-curvature="0"
         id="path3937"
         d="M 104.75147,440.0077 62.85539,419.32484 35.808564,495.51559 64.79994,423.92103 105.10502,440.89159 z"
         style="fill:#a05a2c;fill-opacity:1;stroke:none"
         sodipodi:nodetypes="cccccc" />
      <path
         sodipodi:type="arc"
         style="fill:#a05a2c;fill-opacity:1;stroke:none"
         id="path3939"
         sodipodi:cx="201.375"
         sodipodi:cy="425.48718"
         sodipodi:rx="8.125"
         sodipodi:ry="8.125"
         d="m 209.5,425.48718 c 0,4.48732 -3.63769,8.125 -8.125,8.125 -4.48731,0 -8.125,-3.63768 -8.125,-8.125 0,-4.48731 3.63769,-8.125 8.125,-8.125 4.48731,0 8.125,3.63769 8.125,8.125 z"
         transform="matrix(-0.76067155,0,0,0.76067155,216.81475,98.727635)" />
    </g>
    <path
       style="fill:none;stroke:#000000;stroke-width:1px;stroke-linecap:butt;stroke-linejoin:miter;stroke-opacity:1"
       d="m 435.57778,425.15847 c -1.17851,-0.70711 -2.47972,-1.24147 -3.53554,-2.12132 -0.40488,-0.33741 -0.41475,-0.97569 -0.7071,-1.41422 -1.98884,-2.98326 1.21352,3.84126 -2.12132,-2.82842 -0.10541,-0.21082 0.13074,-0.51099 0,-0.70711 -0.3698,-0.5547 -0.99775,-0.89363 -1.41422,-1.41421 -0.53089,-0.66361 -0.90431,-1.44145 -1.41421,-2.12132 -0.4,-0.53334 -1.04441,-0.85952 -1.41421,-1.41422 -0.29236,-0.43853 -0.39088,-0.99257 -0.70711,-1.41421 -0.4,-0.53333 -1.04441,-0.85951 -1.41421,-1.41421 -0.13075,-0.19612 0.0572,-0.47845 0,-0.70711 -0.18078,-0.7231 -0.37378,-1.45466 -0.70711,-2.12132 -0.14907,-0.29814 -0.47141,-0.47141 -0.70711,-0.70711 -0.2357,-0.4714 -0.51137,-0.92486 -0.70711,-1.41421 -0.27681,-0.69205 -0.43028,-1.42928 -0.7071,-2.12132 -0.19574,-0.48935 -0.54044,-0.91422 -0.70711,-1.41422 -0.0745,-0.2236 0.0745,-0.4835 0,-0.7071 -0.16667,-0.5 -0.54044,-0.91422 -0.70711,-1.41422 -0.0745,-0.2236 0.0745,-0.4835 0,-0.7071 -1.70729,-5.12187 0.20387,1.11483 -1.41421,-2.12132 -0.21082,-0.42164 0.14907,-0.967 0,-1.41422 -0.16667,-0.5 -0.94281,-0.94281 -0.70711,-1.41421 0.21082,-0.42164 0.94281,0 1.41422,0 0.2357,0 0.51099,-0.13074 0.7071,0 0.5547,0.3698 0.94281,0.94281 1.41422,1.41421 0.94281,0.94281 1.78727,1.9955 2.82843,2.82843 0.82672,1.28323 2.43603,1.2967 3.53553,2.12132 0.53333,0.4 0.88088,1.01421 1.41421,1.41421 0.42164,0.31623 0.96228,0.43595 1.41422,0.70711 0.72873,0.43724 1.39259,0.97698 2.12132,1.41421 1.33783,0.8027 2.84672,1.42337 4.24264,2.12132 0.4714,0.23571 0.97568,0.41476 1.41421,0.70711 3.23936,2.15957 -3.00561,-1.14925 2.12132,1.41421 0.47141,0.23571 0.97569,0.41476 1.41421,0.70711 0.27735,0.1849 0.40897,0.55804 0.70711,0.70711 0.21082,0.10541 0.49629,-0.10541 0.70711,0 0.29814,0.14907 0.94281,0.4714 0.70711,0.70711 -0.23571,0.2357 -1.04044,-0.70711 -0.70711,-0.70711 0.52704,0 0.88717,0.70711 1.41421,0.70711 1.08926,0 0.63807,-1.84518 0.70711,-2.12133 0.12783,-0.51131 0.60374,-0.8974 0.70711,-1.41421 0.1849,-0.9245 0,-1.88562 0,-2.82843 0,-2.35702 0,-4.71404 0,-7.07106 0,-5.42116 0,-10.84231 0,-16.26346 0,-0.2357 0,-0.4714 0,-0.70711 0,-0.5012 -0.0914,-4.05981 0,-4.24264 0.14907,-0.29814 0.40896,-0.85618 0.7071,-0.7071 1.23533,0.61766 0.42322,1.97674 0.70711,2.82842 0.10541,0.31623 0.62626,0.38373 0.70711,0.70711 0.17149,0.68599 -0.1715,1.43533 0,2.12132 0.0808,0.32338 0.60169,0.39088 0.7071,0.70711 0.14907,0.44721 -0.11433,0.95688 0,1.41421 0.12783,0.51131 0.54044,0.91421 0.70711,1.41421 0.0745,0.22361 0,0.47141 0,0.70711 0.2357,0.47141 0.54044,0.91421 0.70711,1.41421 0.25046,0.75138 -0.25046,2.07705 0,2.82843 0.16666,0.5 0.54044,0.91422 0.7071,1.41422 0.0745,0.2236 -0.0745,0.4835 0,0.7071 0.16667,0.5 0.54044,0.91422 0.70711,1.41422 0.14907,0.44721 -0.14907,0.967 0,1.41421 1.70729,5.12187 -0.20386,-1.11483 1.41421,2.12132 0.21082,0.42164 -0.21082,0.99258 0,1.41421 0.14907,0.29815 0.55804,0.40897 0.70711,0.70711 0.10541,0.21082 -0.10541,0.49629 0,0.70711 0.14907,0.29814 0.55804,0.40896 0.70711,0.7071 0.21082,0.42164 -0.21082,0.99258 0,1.41422 0.14907,0.29814 0.5222,0.42975 0.7071,0.7071 0.29236,0.43853 0.41476,0.97569 0.70711,1.41422 0.3698,0.5547 1.11607,0.81793 1.41421,1.41421 0.10541,0.21082 -0.10541,0.49629 0,0.70711 0.14908,0.29814 0.55804,0.40896 0.70711,0.7071 0.1076,0.2152 0,1.80287 0,2.12132 0,0.94281 0,1.88562 0,2.82843 0,0.2357 0,0.94281 0,0.70711 0,-2.30988 0,-1.60278 0,0.70711 0,1.41421 0,2.82842 0,4.24264 0,0.2357 0,0.4714 0,0.7071 0,0.23571 0.10541,0.49629 0,0.70711 -0.14907,0.29814 -0.55803,0.40896 -0.70711,0.70711 -0.21081,0.42163 0.21082,0.99257 0,1.41421 -0.14907,0.29814 -0.55803,0.40896 -0.7071,0.70711 -0.21082,0.42163 0.21082,0.99257 0,1.41421 -0.14907,0.29814 -0.55804,0.40896 -0.70711,0.70711 -0.10541,0.21082 0.10541,0.49629 0,0.7071 -0.14907,0.29815 -0.70711,1.04044 -0.70711,0.70711 0,-0.52705 1.07979,-1.78689 0.70711,-1.41421 -0.60092,0.60092 -1.03415,1.3612 -1.41421,2.12132 -0.62587,1.25173 1.05177,0.24162 -0.70711,1.41421 -1.21877,0.81252 -1.06885,0.70711 -2.12132,0.70711 -0.2357,0 -0.4714,0 -0.70711,0 -0.2357,0 -0.49629,-0.10541 -0.7071,0 -0.29815,0.14907 -0.40897,0.55803 -0.70711,0.7071 -0.21082,0.10541 -0.47141,0 -0.70711,0 -0.2357,0 -0.4714,0 -0.7071,0 -1.41422,0 -2.82843,0 -4.24264,0 -0.36739,0 -3.44152,0.0627 -3.53554,0 -1.25575,-0.83717 -2.35702,-1.88561 -3.53553,-2.82842 z"
       id="path3964"
       inkscape:connector-curvature="0" />
    <path
       style="fill:none;stroke:#000000;stroke-width:1px;stroke-linecap:butt;stroke-linejoin:miter;stroke-opacity:1"
       d="m 538.81537,390.51024 c -0.2357,-0.23571 -0.47141,-0.94281 -0.70711,-0.70711 -0.2357,0.2357 0.6017,0.39088 0.70711,0.70711 0.14907,0.44721 0,0.9428 0,1.41421 0,0.2357 0.2357,-0.70711 0,-0.70711 -0.2357,0 0,0.47141 0,0.70711 0,0.4714 0,0.94281 0,1.41421 0,1.17851 0,2.35702 0,3.53554 0,1.17851 0,2.35702 0,3.53553 0,0.46465 0.13298,1.72237 0,2.12132 -0.16667,0.5 -0.54044,0.91421 -0.70711,1.41421 -0.14907,0.44722 0.14907,0.967 0,1.41422 -0.16667,0.5 -0.57928,0.9029 -0.70711,1.41421 -0.11433,0.45733 0,0.94281 0,1.41421 0,0.23571 0.10541,0.49629 0,0.70711 -0.14907,0.29814 -0.5222,0.42976 -0.7071,0.70711 -0.58471,0.87706 -0.82951,1.95137 -1.41422,2.82843 -0.40677,0.61016 -1.56901,1.569 -2.12132,2.12132 -0.37226,0.37226 -1.74366,1.93249 -2.12132,2.12132 -0.21082,0.10541 -0.49629,-0.10541 -0.7071,0 -0.37766,0.18882 -1.74906,1.74905 -2.12132,2.12132 -0.47141,0.4714 -0.85952,1.04441 -1.41422,1.41421 -0.43853,0.29235 -0.97568,0.41475 -1.41421,0.70711 -0.5547,0.3698 -0.85951,1.04441 -1.41422,1.41421 -0.43852,0.29235 -0.97568,0.41475 -1.41421,0.70711 -1.61807,1.07871 0.44215,0.55972 -2.12132,1.41421 -0.22361,0.0745 -0.49629,-0.10541 -0.70711,0 -0.29814,0.14907 -0.40896,0.55804 -0.7071,0.70711 -0.21082,0.10541 -0.49629,-0.10541 -0.70711,0 -0.29814,0.14907 -0.40896,0.55803 -0.70711,0.7071 -0.21081,0.10541 -0.49628,-0.1054 -0.7071,0 -0.29815,0.14908 -0.40897,0.55804 -0.70711,0.70711 -0.56569,0.28284 -1.55563,-0.28284 -2.12132,0 -0.29814,0.14907 -0.40896,0.55804 -0.70711,0.70711 -0.21082,0.10541 -0.49628,-0.10541 -0.7071,0 -0.29815,0.14907 -0.40897,0.55803 -0.70711,0.7071 -0.21082,0.10541 -0.4714,0 -0.70711,0 -0.2357,0 -0.4714,0 -0.7071,0 -1.41422,0 -2.82843,0 -4.24264,0 -1.17852,0 -2.35703,0 -3.53554,0 -0.4714,0 -0.967,0.14908 -1.41421,0 -0.5,-0.16666 -0.91422,-0.54044 -1.41422,-0.7071 -0.63639,-0.21213 -1.48492,0.21213 -2.12132,0 -0.5,-0.16667 -0.91421,-0.54044 -1.41421,-0.70711 -0.44721,-0.14907 -0.967,0.14907 -1.41421,0 -0.5,-0.16667 -0.91422,-0.54044 -1.41422,-0.70711 -0.2236,-0.0745 -0.4835,0.0745 -0.7071,0 -0.5,-0.16666 -0.91422,-0.54044 -1.41422,-0.7071 -0.63639,-0.21213 -1.48492,0.21213 -2.12132,0 -0.5,-0.16667 -0.91421,-0.54044 -1.41421,-0.70711 -0.22361,-0.0745 -0.70711,-0.2357 -0.70711,0 0,0.11703 3.98049,-0.13107 4.24264,0 0.29815,0.14907 0.39088,0.6017 0.70711,0.70711 0.44721,0.14907 0.94281,0 1.41421,0 0.23571,0 0.49629,0.10541 0.70711,0 0.29814,-0.14907 0.40896,-0.55804 0.70711,-0.70711 0.42163,-0.21082 0.99257,0.21082 1.41421,0 0.29814,-0.14907 0.40896,-0.55803 0.70711,-0.70711 0.56568,-0.28284 1.55563,0.28285 2.12132,0 0.29814,-0.14907 0.39088,-0.60169 0.7071,-0.7071 2.62132,-0.87378 0.46303,0.95118 2.12132,-0.70711 0.70711,-0.70711 1.41422,-1.41421 2.12133,-2.12132 0.2357,-0.2357 0.5222,-0.42976 0.7071,-0.70711 0.29235,-0.43853 0.41476,-0.97568 0.70711,-1.41421 0.54393,-0.81589 1.57739,-1.30543 2.12132,-2.12132 1.0839,-1.62585 0.33031,-1.90968 1.41421,-3.53553 0.3698,-0.5547 1.11607,-0.81793 1.41422,-1.41422 0.10541,-0.21082 -0.10541,-0.49629 0,-0.7071 0.14907,-0.29815 0.55803,-0.40897 0.7071,-0.70711 0.10541,-0.21082 -0.0745,-0.4835 0,-0.70711 0.16667,-0.5 0.47141,-0.94281 0.70711,-1.41421 0.2357,-0.47141 0.41475,-0.97569 0.70711,-1.41422 0.1849,-0.27735 0.55803,-0.40896 0.7071,-0.7071 0.10541,-0.21082 -0.0745,-0.4835 0,-0.70711 1.70729,-5.12187 -0.20386,1.11483 1.41422,-2.12132 0.10541,-0.21082 -0.10541,-0.49629 0,-0.70711 0.29814,-0.59628 1.04441,-0.85951 1.41421,-1.41421 0.29235,-0.43853 0.4714,-0.94281 0.70711,-1.41421 0,-0.23571 -0.10541,-0.49629 0,-0.70711 0.16372,-0.32745 2.41254,-2.41255 2.82842,-2.82843 0.23571,-0.2357 0.70711,-0.37377 0.70711,-0.7071 0,-1.32009 -2.27234,-0.42907 -2.82843,-0.70711 -1.74754,-0.87377 0.24408,-0.70711 -1.41421,-0.70711 -2.82843,0 -5.65685,0 -8.48528,0 -0.49182,0 -3.27982,-0.12785 -3.53553,0 -0.29815,0.14907 -0.40897,0.55804 -0.70711,0.70711 -0.41721,0.2086 -1.63495,-0.16212 -2.12132,0 -0.5,0.16667 -0.91422,0.54044 -1.41422,0.70711 -0.66617,0.22205 -3.78419,-0.22923 -4.24264,0 -0.29814,0.14907 -0.40896,0.55803 -0.7071,0.7071 -0.56569,0.28285 -1.55564,-0.28284 -2.12132,0 -0.29815,0.14907 -0.40897,0.55804 -0.70711,0.70711 -0.42164,0.21082 -0.99258,-0.21082 -1.41421,0 -0.29815,0.14907 -0.40897,0.55804 -0.70711,0.70711 -0.47141,0.2357 -2.20182,-0.63246 -2.12132,0.7071 -0.27735,0.1849 -0.37581,0.67031 -0.70711,0.70711 -1.87408,0.20823 -3.77123,0 -5.65685,0 -1.65544,-2.65658 1.6867,-2.23169 2.12132,-3.53553 0.14907,-0.44722 0,-0.94281 0,-1.41422 0,-0.2357 -0.10541,-0.49629 0,-0.7071 0.14907,-0.29815 0.55803,-0.40897 0.70711,-0.70711 0.1054,-0.21082 -0.10541,-0.49629 0,-0.70711 0.14907,-0.29814 0.55803,-0.40896 0.7071,-0.7071 0.10541,-0.21082 -0.10541,-0.49629 0,-0.70711 0.14907,-0.29814 0.55804,-0.40897 0.70711,-0.70711 0.10541,-0.21082 -0.10541,-0.49629 0,-0.70711 0.29814,-0.59628 1.11607,-0.81792 1.41421,-1.41421 0.10541,-0.21082 -0.10541,-0.49629 0,-0.70711 0.14907,-0.29814 0.55804,-0.40896 0.70711,-0.7071 0.10541,-0.21082 -0.10541,-0.49629 0,-0.70711 0.14907,-0.29814 0.55803,-0.40896 0.70711,-0.70711 0.10541,-0.21081 -0.10541,-0.49628 0,-0.7071 0.2252,-0.45041 2.97991,-2.97991 3.53553,-3.53554 0.55562,-0.55562 3.08513,-3.31033 3.53553,-3.53553 0.21082,-0.10541 0.4835,0.0745 0.70711,0 5.12187,-1.70729 -1.11483,0.20386 2.12132,-1.41421 0.42164,-0.21082 0.99258,0.21081 1.41421,0 0.29815,-0.14908 0.40897,-0.55804 0.70711,-0.70711 0.44443,-0.22222 2.384,0.22222 2.82843,0 0.29814,-0.14907 0.40896,-0.55804 0.70711,-0.70711 0.44609,-0.22304 3.08944,0.22305 3.53553,0 0.29814,-0.14907 0.40896,-0.55803 0.70711,-0.7071 0.21519,-0.1076 1.80287,0 2.12132,0 1.41421,0 2.82842,0 4.24264,0 0.36976,0 2.6425,-0.093 2.82842,0 0.29815,0.14907 0.40897,0.55803 0.70711,0.7071 0.21082,0.10541 0.49629,-0.10541 0.70711,0 0.59628,0.29814 0.81793,1.11607 1.41421,1.41422 0.21082,0.10541 0.47141,0 0.70711,0 0.4714,0.2357 0.97568,0.41475 1.41421,0.7071 0.61016,0.40678 1.56901,1.56901 2.12132,2.12132 1.64992,1.64992 3.29983,3.29983 4.94975,4.94975 2.09421,-3.44905 2.12132,-4.14741 2.12132,-7.07107 0,-0.2357 -0.10541,-0.49629 0,-0.7071 0.14907,-0.29815 0.4714,-0.47141 0.70711,-0.70711 0.2357,-0.2357 0.4714,-0.47141 0.7071,-0.70711 0.23571,-0.2357 0.47141,-0.4714 0.70711,-0.7071 0.2357,-0.23571 0.40896,-0.55804 0.70711,-0.70711 0.21082,-0.10541 0.4714,0 0.7071,0 0.23571,0 0.47141,0 0.70711,0 0.46465,0 1.72237,-0.13298 2.12132,0 0.5,0.16667 0.94281,0.4714 1.41421,0.70711 0.47141,0.2357 0.97569,0.41475 1.41422,0.7071 0.5547,0.3698 0.94281,0.94281 1.41421,1.41422 0.70711,0.7071 1.41421,1.41421 2.12132,2.12132 0.2357,0.2357 0.40897,0.55803 0.70711,0.7071 0.21082,0.10541 0.49629,0.10541 0.70711,0 0.29814,-0.14907 0.4714,-0.4714 0.7071,-0.7071 0.2357,-0.23571 0.55804,-0.40897 0.70711,-0.70711 0.10541,-0.21082 -0.10541,-0.49629 0,-0.70711 0.14907,-0.29814 0.55803,-0.40896 0.70711,-0.7071 0.23151,-0.46303 -0.20917,-2.90803 0,-3.53554 0.16666,-0.5 0.54044,-0.91421 0.7071,-1.41421 0.22339,-0.67016 -0.22338,-2.86538 0,-3.53554 0.16667,-0.5 0.54044,-0.91421 0.70711,-1.41421 0.14086,-0.42259 -0.36588,-1.41421 0.70711,-1.41421 1.08221,0 2.79068,2.08358 3.53553,2.82842 0.70711,0.70711 1.41421,1.41422 2.12132,2.12133 0.2357,0.2357 0.52221,0.42975 0.70711,0.7071 0.29235,0.43853 0.2357,1.17851 0.7071,1.41422 0.0747,0.0374 2.00794,-1.95125 2.12132,-2.12132 1.55788,-0.3561 0.37378,-1.45466 0.70711,-2.12133 0.14907,-0.29814 0.6017,-0.39087 0.70711,-0.7071 0.14907,-0.44722 0,-0.94281 0,-1.41422 0,-0.2357 -0.13075,-0.51099 0,-0.7071 0.0118,-0.0176 2.52478,-2.67661 2.82842,-2.82843 0.037,-0.0185 2.08433,-0.0185 2.12133,0 0.4504,0.2252 2.97991,2.97991 3.53553,3.53553 0.2357,0.23571 0.4714,0.47141 0.70711,0.70711 0.2357,0.2357 0.4714,0.94281 0.7071,0.70711 3.81145,-3.81145 -0.251,-0.91221 0.70711,-2.82843 0.14907,-0.29814 0.6017,-0.39088 0.70711,-0.70711 0,-3.21895 -0.33334,-0.0404 0.7071,-2.12132 0.2113,-0.42259 -0.46548,-1.41421 0.70711,-1.41421 0.33333,0 0.4714,0.4714 0.70711,0.70711 0.2357,0.2357 0.4714,0.4714 0.7071,0.7071 0.47141,0.47141 1.04442,0.85952 1.41422,1.41422 0.29235,0.43853 0.41475,0.97568 0.7071,1.41421 0.1849,0.27735 0.55804,0.40897 0.70711,0.70711 0.10541,0.21082 0,0.4714 0,0.7071 0.2357,0.47141 0.41475,0.97569 0.70711,1.41422 0.1849,0.27735 0.7071,0.37377 0.7071,0.7071 0,0.52705 -0.4714,0.94281 -0.7071,1.41422 0.4714,1.17851 1.01283,2.33137 1.41421,3.53553 0.0745,0.22361 -0.10541,0.49629 0,0.70711 0.14907,0.29814 0.55804,0.40896 0.70711,0.70711 0.0792,0.15848 0,2.66039 0,2.82842 0,0.23571 0.2357,-0.7071 0,-0.7071 -0.2357,0 0,0.4714 0,0.7071 0,0.86315 0.27438,1.63058 -0.70711,2.12132 -0.60141,0.30071 -1.91114,-0.56699 -2.12132,-0.7071 -0.27735,-0.1849 -0.40896,-0.85618 -0.70711,-0.70711 -1.83976,0.91988 -0.2477,1.20252 -0.7071,2.12132 -0.14907,0.29814 -0.47141,0.4714 -0.70711,0.70711 -0.2357,0.2357 -0.40896,0.55803 -0.70711,0.7071 -0.15848,0.0793 -2.66039,0 -2.82842,0 -0.23571,0 0.7071,0.23571 0.7071,0 0,-0.2357 -0.49629,-0.10541 -0.7071,0 -0.69582,0.34791 -2.13262,2.48052 -2.82843,2.82843 -0.21082,0.10541 -0.47141,0 -0.70711,0 -1.59752,0 0.31623,0.10541 -2.12132,-0.70711 -0.20999,-0.07 -3.3904,-0.0726 -3.53553,0 -1.38808,0.69404 -0.31834,1.34379 -0.70711,2.12132 -0.14907,0.29815 -0.55803,0.40897 -0.70711,0.70711 -0.21081,0.42164 0.21082,0.99258 0,1.41421 -0.0939,0.18775 -1.93357,2.02745 -2.12132,2.12132 -0.0966,0.0483 -4.14606,0.0483 -4.24264,0 -0.29814,-0.14907 -0.40896,-0.55803 -0.7071,-0.7071 -0.21082,-0.10541 -0.49629,0.10541 -0.70711,0 -1.50588,-0.75294 0.0917,-0.66127 -1.41421,-1.41422 -0.2152,-0.10759 -1.80287,0 -2.12132,0 -0.36976,0 -2.6425,-0.093 -2.82843,0 -0.29814,0.14908 -0.40897,0.55804 -0.70711,0.70711 -0.21082,0.10541 -0.49629,-0.10541 -0.7071,0 -3.23615,1.61808 3.00054,-0.29307 -2.12133,1.41421 -0.2236,0.0745 -0.4714,0 -0.7071,0 -1.41421,0.70711 -2.82843,1.41422 -4.24264,2.12133 z"
       id="path3966"
       inkscape:connector-curvature="0" />
    <path
       style="fill:none;stroke:#000000;stroke-width:1px;stroke-linecap:butt;stroke-linejoin:miter;stroke-opacity:1"
       d="m 544.47222,438.5935 c -1.88562,0 -3.77123,0 -5.65685,0 -0.2357,0 -0.47141,0 -0.70711,0 -0.2357,0 -0.49629,-0.10541 -0.70711,0 -0.29814,0.14907 -0.40896,0.55803 -0.7071,0.7071 -0.21082,0.10541 -0.49629,-0.10541 -0.70711,0 -0.29814,0.14907 -0.40896,0.55804 -0.70711,0.70711 -0.21082,0.10541 -0.49628,-0.10541 -0.7071,0 -0.29815,0.14907 -0.40897,0.55804 -0.70711,0.70711 -0.42164,0.21082 -0.99258,-0.21082 -1.41421,0 -0.29815,0.14907 -0.47141,0.4714 -0.70711,0.7071 -0.2357,0.23571 -0.55804,0.40897 -0.70711,0.70711 -0.21082,0.42164 0.21082,0.99258 0,1.41421 -0.14907,0.29815 -0.60169,0.39088 -0.7071,0.70711 -0.14908,0.44721 0,0.94281 0,1.41421 0,1.17852 0,2.35703 0,3.53554 0,0.4714 0,0.94281 0,1.41421 0,0.2357 0.0745,0.4835 0,0.70711 -0.16667,0.5 -0.54044,0.91421 -0.70711,1.41421 -0.0745,0.22361 0.0745,0.4835 0,0.70711 -0.17225,0.51675 -0.76698,1.7977 -1.41421,2.12132 -0.21082,0.10541 -0.47141,0 -0.70711,0 -0.2357,0 -0.47141,0 -0.70711,0 -0.2357,0 -0.49629,0.10541 -0.7071,0 -0.84853,-0.42426 -1.2728,-1.69706 -2.12133,-2.12132 -0.21081,-0.10541 -0.49628,0.10541 -0.7071,0 -0.29814,-0.14907 -0.40897,-0.55804 -0.70711,-0.70711 -0.42164,-0.21082 -0.99258,0.21082 -1.41421,0 -0.29814,-0.14907 -0.40897,-0.55803 -0.70711,-0.7071 -0.2152,-0.1076 -1.80287,0 -2.12132,0 -0.5012,0 -4.05982,-0.0914 -4.24264,0 -0.18774,0.0939 -2.02745,1.93357 -2.12132,2.12132 -0.0483,0.0966 -0.0483,4.14606 0,4.24264 0.14907,0.29814 1.04044,0.7071 0.70711,0.7071 -1.44031,0 -1.85421,-1.63421 -2.82843,-2.12132 -0.21082,-0.10541 -0.47141,0 -0.70711,0 -0.2357,0 -0.4714,0 -0.7071,0 -0.94281,0 -1.88562,0 -2.82843,0 -0.5012,0 -4.05982,-0.0914 -4.24264,0 -0.29814,0.14907 -0.55804,0.40897 -0.70711,0.70711 -0.10541,0.21082 0,0.4714 0,0.70711 0,0.2357 0,0.4714 0,0.7071 0,1.17851 0,2.35703 0,3.53554 0,0.56424 -0.14141,3.11131 0,3.53553 0.16667,0.5 0.70711,0.88717 0.70711,1.41421 0,0.23571 -0.47141,0 -0.70711,0 -0.2357,0 -0.4714,0 -0.70711,0"
       id="path3968"
       inkscape:connector-curvature="0" />
    <path
       style="fill:none;stroke:#000000;stroke-width:1px;stroke-linecap:butt;stroke-linejoin:miter;stroke-opacity:1"
       d="m 490.73211,464.75645 c -0.70711,0.94281 -1.41422,1.88562 -2.12132,2.82842 0,0.23571 0.10541,0.49629 0,0.70711 -0.14908,0.29814 -0.47141,0.47141 -0.70711,0.70711 -0.2357,0.2357 -0.47141,0.4714 -0.70711,0.7071"
       id="path3970"
       inkscape:connector-curvature="0" />
    <path
       style="fill:none;stroke:#000000;stroke-width:1px;stroke-linecap:butt;stroke-linejoin:miter;stroke-opacity:1"
       d="m 364.15999,333.94169 c -2.12574,-0.8649 -4.16307,-0.7071 -6.36396,-0.7071 -0.46464,0 -1.72237,-0.13299 -2.12132,0 -1,0.33333 -1.80581,1.15855 -2.82843,1.41421 -0.45733,0.11433 -0.95688,-0.11433 -1.41421,0 -1.02262,0.25565 -1.82843,1.08088 -2.82843,1.41421 -0.2236,0.0745 -0.49629,-0.10541 -0.7071,0 -0.59629,0.29815 -0.81793,1.11607 -1.41422,1.41422 -0.21082,0.10541 -0.49629,-0.10541 -0.7071,0 -0.29815,0.14907 -0.47141,0.4714 -0.70711,0.7071 -0.2357,0.23571 -0.47141,0.47141 -0.70711,0.70711 -0.37226,0.37227 -1.93249,1.74367 -2.12132,2.12132 -0.10541,0.21082 0.10541,0.49629 0,0.70711 -0.14907,0.29814 -0.55803,0.40896 -0.7071,0.7071 -0.10541,0.21082 0.1054,0.49629 0,0.70711 -0.1257,0.25139 -1.28852,1.16282 -1.41422,1.41421 -0.10541,0.21082 0.10541,0.49629 0,0.70711 -1.61807,3.23615 0.29308,-3.00055 -1.41421,2.12132 -0.0745,0.22361 0.10541,0.49629 0,0.70711 -0.29814,0.59628 -1.11607,0.81793 -1.41422,1.41421 -0.1054,0.21082 0.0745,0.4835 0,0.70711 -0.16666,0.5 -0.54044,0.91421 -0.7071,1.41421 -0.14907,0.44722 0.21082,0.99258 0,1.41422 -0.14907,0.29814 -0.55804,0.40896 -0.70711,0.7071 -0.12786,0.25572 0,3.04372 0,3.53554 0,1.17851 0,2.35702 0,3.53553 0,0.4714 -0.14907,0.967 0,1.41421 0.16667,0.5 0.54044,0.91422 0.70711,1.41422 0.25046,0.75138 -0.25046,2.07704 0,2.82842 0.10541,0.31623 0.55803,0.40897 0.7071,0.70711 0.23431,0.46862 -0.19754,2.23578 0,2.82843 0.16667,0.5 0.54044,0.91421 0.70711,1.41421 0.14907,0.44722 -0.14907,0.967 0,1.41422 0.16667,0.5 0.54044,0.91421 0.70711,1.41421 0.14907,0.44721 -0.14907,0.967 0,1.41421 0.16666,0.5 0.54044,0.91422 0.70711,1.41422 0.0745,0.2236 0,0.4714 0,0.7071 0,1.20529 -0.0745,1.26515 0.7071,2.82843 1.60948,1.60948 0.18689,-0.14645 0.70711,1.41421 0.18529,0.55587 1.02567,2.66915 2.12132,2.12132 0.29814,-0.14907 0.42976,-0.5222 0.70711,-0.7071 0.43852,-0.29236 1.04153,-0.33443 1.41421,-0.70711 0.37268,-0.37268 0.41475,-0.97568 0.70711,-1.41421 0.42912,-0.64369 1.80795,-1.49459 2.12132,-2.12132 0.21081,-0.42164 -0.21082,-0.99258 0,-1.41422 0.27007,-0.54015 1.96171,-1.6425 2.12132,-2.12132 0.14907,-0.44721 -0.14907,-0.967 0,-1.41421 0.10541,-0.31623 0.5222,-0.42976 0.7071,-0.70711 0.29236,-0.43853 0.41476,-0.97568 0.70711,-1.41421 0.3698,-0.5547 1.11607,-0.81793 1.41421,-1.41421 0.10541,-0.21082 -0.10541,-0.49629 0,-0.70711 0.14908,-0.29814 0.52221,-0.42976 0.70711,-0.70711 0.29235,-0.43853 0.41475,-0.97568 0.70711,-1.41421 0.3698,-0.5547 1.11607,-0.81793 1.41421,-1.41422 0.10541,-0.21081 -0.10541,-0.49628 0,-0.7071 0.75294,-1.50588 0.66127,0.0917 1.41421,-1.41422 0.10541,-0.21081 0,-0.4714 0,-0.7071 0.23571,-0.47141 0.41476,-0.97569 0.70711,-1.41422 0.42913,-0.64369 1.80795,-1.49458 2.12132,-2.12132 0.10541,-0.21081 -0.10541,-0.49628 0,-0.7071 0.31337,-0.62674 1.6922,-1.47763 2.12132,-2.12132 0.29235,-0.43853 0.41476,-0.97569 0.70711,-1.41422 0.1849,-0.27735 0.4714,-0.4714 0.70711,-0.7071 0.2357,-0.47141 0.41475,-0.97569 0.7071,-1.41422 0.40678,-0.61016 1.56901,-1.56901 2.12132,-2.12132 0.23571,-0.2357 0.47141,-0.4714 0.70711,-0.7071 0.2357,-0.23571 0.40896,-0.55804 0.70711,-0.70711 0.21081,-0.10541 0.49628,0.10541 0.7071,0 0.84853,-0.42427 1.2728,-1.69706 2.12132,-2.12132 0.21082,-0.10541 0.47141,0 0.70711,0 0.2357,0 0.49629,-0.10541 0.70711,0 0.32744,0.16372 2.41254,2.41254 2.82842,2.82843 2.35703,2.35702 4.71405,4.71404 7.07107,7.07106 1.17851,1.17851 2.35702,2.35703 3.53554,3.53554 0.4714,0.4714 0.9428,0.94281 1.41421,1.41421 0.2357,0.2357 0.94281,0.47141 0.70711,0.70711 -0.23571,0.2357 -0.94281,-0.94281 -0.70711,-0.70711 0.4714,0.47141 0.94281,0.94281 1.41421,1.41421 0.23571,0.23571 0.70711,0.37378 0.70711,0.70711 0,0.228 -1.21777,1.02132 -1.41421,1.41421 -0.10541,0.21082 0.10541,0.49629 0,0.70711 -1.1406,2.28119 -0.27362,-0.86697 -1.41422,1.41422 -0.10541,0.21081 0.10541,0.49628 0,0.7071 -0.3479,0.69582 -2.48052,2.13262 -2.82842,2.82843 -0.10541,0.21082 0.1054,0.49629 0,0.70711 -0.14908,0.29814 -0.47141,0.4714 -0.70711,0.7071 -0.2357,0.2357 -0.47141,0.47141 -0.70711,0.70711 -0.94281,0.94281 -1.88562,1.88562 -2.82843,2.82843 -2.35702,2.35702 -4.71404,4.71404 -7.07106,7.07106 -0.37227,0.37227 -1.9325,1.74367 -2.12132,2.12132 -0.10541,0.21082 0.10541,0.49629 0,0.70711 -0.14907,0.29814 -0.47141,0.47141 -0.70711,0.70711 -0.2357,0.2357 -0.4714,0.4714 -0.70711,0.7071 -0.37226,0.37227 -1.74366,1.9325 -2.12132,2.12133 -0.21082,0.1054 -0.49629,-0.10541 -0.7071,0 -3.23615,1.61807 3.00054,-0.29308 -2.12132,1.41421 -0.93089,0.31029 -1.49703,-0.54149 -2.12132,0.70711 -0.34682,0.69362 0.3238,1.0309 0.7071,1.41421 0.2357,0.2357 0.40897,0.55803 0.70711,0.70711 0.21082,0.10541 0.4714,0 0.70711,0 0.2357,0 0.4714,0 0.7071,0 2.59273,0 5.18545,0 7.77818,0 0.36976,0 2.6425,0.093 2.82842,0 0.29815,-0.14908 0.40897,-0.55804 0.70711,-0.70711 0.21499,-0.10749 2.34016,0 2.82843,0 1.65829,0 -0.33334,0.16667 1.41421,-0.70711 0.42164,-0.21082 0.99258,0.21082 1.41422,0 0.29814,-0.14907 0.39087,-0.6017 0.7071,-0.7071 0.44722,-0.14908 0.967,0.14907 1.41422,0 0.31622,-0.10541 0.39087,-0.6017 0.7071,-0.70711 3.21895,0 0.0404,0.33333 2.12132,-0.70711 0.21082,-0.10541 0.47141,0 0.70711,0 0.4714,0 0.967,0.14907 1.41421,0 0.31623,-0.10541 0.40897,-0.55803 0.70711,-0.7071 0.42164,-0.21082 0.99258,0.21081 1.41421,0 0.59629,-0.29815 0.81793,-1.11608 1.41422,-1.41422 0.42163,-0.21082 0.99257,0.21082 1.41421,0 0.29814,-0.14907 0.42976,-0.52221 0.70711,-0.70711 0.43853,-0.29235 0.97568,-0.41475 1.41421,-0.7071 0.27735,-0.1849 0.40897,-0.55804 0.70711,-0.70711 0.21082,-0.10541 0.49629,0.10541 0.7071,0 0.59629,-0.29814 0.81793,-1.11607 1.41422,-1.41421 0.21082,-0.10541 0.49629,0.10541 0.7071,0 0.59629,-0.29814 0.81793,-1.11607 1.41422,-1.41422 0.21082,-0.10541 0.49629,0.10541 0.70711,0 0.37765,-0.18882 1.74905,-1.74905 2.12132,-2.12132 1.64991,-1.64991 3.29983,-3.29983 4.94974,-4.94974 1.17851,-1.17851 2.35703,-2.35703 3.53554,-3.53554 0.2357,-0.2357 0.4714,-0.4714 0.7071,-0.7071 0.23571,-0.23571 0.55804,-0.40897 0.70711,-0.70711 0.10541,-0.21082 -0.10541,-0.49629 0,-0.70711 0.14907,-0.29814 0.55804,-0.40896 0.70711,-0.7071 0.15732,-0.31465 -0.10781,-2.50501 0,-2.82843 0.10541,-0.31623 0.60169,-0.39088 0.7071,-0.70711 0.14908,-0.44721 -0.14907,-0.967 0,-1.41421 0.10541,-0.31623 0.55804,-0.40897 0.70711,-0.70711 0.22305,-0.44609 -0.22305,-3.08944 0,-3.53553 0.87377,-1.74755 0.70711,0.24407 0.70711,-1.41422 0,-0.2357 0.0745,-0.4835 0,-0.7071 -0.16667,-0.5 -0.54044,-0.91422 -0.70711,-1.41422 -0.14907,-0.44721 0.21082,-0.99257 0,-1.41421 -0.14907,-0.29814 -0.55803,-0.40896 -0.70711,-0.70711 -0.21081,-0.42163 0.14908,-0.967 0,-1.41421 -0.16666,-0.5 -0.54044,-0.91421 -0.7071,-1.41421 -0.0745,-0.22361 0.10541,-0.49629 0,-0.70711 -0.14907,-0.29814 -0.55804,-0.40897 -0.70711,-0.70711 -0.28284,-0.56568 0.28284,-1.55563 0,-2.12132 -0.14907,-0.29814 -0.55804,-0.40896 -0.70711,-0.7071 -0.21081,-0.42164 0.14907,-0.967 0,-1.41422 -0.16666,-0.5 -0.54044,-0.91421 -0.7071,-1.41421 -0.16213,-0.48637 0.2086,-1.70412 0,-2.12132 -0.14907,-0.29814 -0.55804,-0.40897 -0.70711,-0.70711 -0.21082,-0.42164 0.21082,-0.99258 0,-1.41421 -0.14907,-0.29815 -0.55804,-0.40897 -0.70711,-0.70711 -0.28284,-0.56568 0.28285,-1.55563 0,-2.12132 -0.14907,-0.29814 -0.55803,-0.40896 -0.7071,-0.70711 -0.10541,-0.21082 0.10541,-0.49628 0,-0.7071 -0.14907,-0.29815 -0.55804,-0.40897 -0.70711,-0.70711 -0.28284,-0.56569 0.28284,-1.55564 0,-2.12132 -0.14907,-0.29814 -0.52221,-0.42976 -0.70711,-0.70711 -0.29235,-0.43853 -0.4714,-0.94281 -0.7071,-1.41421 -0.23571,-0.47141 -0.54044,-0.91421 -0.70711,-1.41421 -0.70165,-2.10494 1.67434,1.45084 -0.70711,-2.12132 -0.1849,-0.27735 -0.5222,-0.42976 -0.7071,-0.70711 -0.29236,-0.43853 -0.41476,-0.97569 -0.70711,-1.41422 -0.1849,-0.27735 -0.47141,-0.4714 -0.70711,-0.7071 -0.7071,-0.70711 -1.41421,-1.41422 -2.12132,-2.12132 -0.55231,-0.55231 -1.51116,-1.71455 -2.12132,-2.12132 -0.43853,-0.29236 -0.97568,-0.41476 -1.41421,-0.70711 -0.27735,-0.1849 -0.40897,-0.55803 -0.70711,-0.70711 -0.21082,-0.10541 -0.49629,0.10541 -0.70711,0 -0.29814,-0.14907 -0.40896,-0.55803 -0.7071,-0.7071 -0.42937,-0.21469 -3.81327,0.21468 -4.24264,0 -0.29815,-0.14907 -0.40897,-0.55804 -0.70711,-0.70711 -0.21082,-0.10541 -0.4835,0.0745 -0.70711,0 -0.5,-0.16667 -0.91421,-0.54044 -1.41421,-0.70711 -0.75138,-0.25046 -2.07705,0.25046 -2.82843,0 -0.5,-0.16666 -0.9029,-0.57928 -1.41421,-0.7071 -0.63129,-0.15783 -2.71704,0 -3.53553,0 -1.17852,0 -2.35703,0 -3.53554,0 -0.2357,0 -0.4714,0 -0.70711,0 -0.2357,0 -0.49628,-0.10541 -0.7071,0 -0.29814,0.14907 -0.40897,0.55803 -0.70711,0.7071 -0.21082,0.10541 -0.4835,-0.0745 -0.70711,0 -0.5,0.16667 -0.9428,0.47141 -1.41421,0.70711 -0.4714,0.2357 -0.97568,0.41475 -1.41421,0.70711 -0.61017,0.40677 -1.56901,1.56901 -2.12132,2.12132 -0.55231,0.55231 -1.71455,1.51116 -2.12132,2.12132 -1.55788,0.35609 -0.37378,1.45465 -0.70711,2.12132 -0.14907,0.29814 -0.55804,0.40896 -0.70711,0.7071 -0.21082,0.42164 0.21082,0.99258 0,1.41422 -0.14907,0.29814 -0.55803,0.40896 -0.7071,0.70711 -0.10541,0.21081 0.10541,0.49628 0,0.7071 -0.14908,0.29814 -0.55804,0.40897 -0.70711,0.70711 -0.39606,0.79212 1.69017,4.13485 -0.70711,3.53553 -0.94281,-0.2357 0.47141,-1.88562 0,0 z"
       id="path3972"
       inkscape:connector-curvature="0" />
    <path
       style="fill:none;stroke:#000000;stroke-width:1px;stroke-linecap:butt;stroke-linejoin:miter;stroke-opacity:1"
       d="m 376.88791,319.09245 c 1.56329,-3.12657 0.66886,-2.08307 2.12132,-3.53553 0.23571,-0.23571 0.52221,-0.42976 0.70711,-0.70711 0.29235,-0.43853 0.41476,-0.97568 0.70711,-1.41421 0.38612,-0.57919 1.02809,-0.83503 1.41421,-1.41422 0.29235,-0.43853 0.41476,-0.97568 0.70711,-1.41421 0.3698,-0.5547 1.04441,-0.85951 1.41421,-1.41421 0.29235,-0.43853 0.41476,-0.97569 0.70711,-1.41422 0.1849,-0.27735 0.55803,-0.40896 0.70711,-0.7071 0.10541,-0.21082 -0.10541,-0.49629 0,-0.70711 0.14907,-0.29814 0.4714,-0.47141 0.7071,-0.70711 0.80904,-0.80904 0.83706,-0.98612 2.12132,-1.41421 0.22361,-0.0745 0.49629,0.10541 0.70711,0 0.29814,-0.14907 0.40896,-0.55804 0.70711,-0.70711 0.18592,-0.093 2.45866,0 2.82842,0 1.41422,0 2.82843,0 4.24264,0 0.46465,0 1.72238,-0.13298 2.12132,0 1,0.33333 1.82843,1.08088 2.82843,1.41421 0.44722,0.14908 0.95689,-0.11433 1.41422,0 7.14433,1.78609 -0.51067,-0.25533 2.82842,1.41422 0.21082,0.10541 0.49629,-0.10541 0.70711,0 0.29814,0.14907 0.4714,0.4714 0.70711,0.70711 0.55231,0.55231 1.51115,1.71454 2.12132,2.12132 0.43853,0.29235 0.97568,0.41475 1.41421,0.7071 0.27735,0.1849 0.4714,0.47141 0.70711,0.70711 0.2357,0.2357 0.55803,0.40896 0.7071,0.70711 0.10541,0.21081 -0.0745,0.4835 0,0.7071 0.33334,1 1.08088,1.82843 1.41422,2.82843 0.0745,0.22361 -0.10541,0.49629 0,0.70711 0.14907,0.29814 0.55803,0.40896 0.7071,0.7071 0.10541,0.21082 -0.0745,0.4835 0,0.70711 0.16667,0.5 0.54044,0.91421 0.70711,1.41421 0.14907,0.44722 -0.14907,0.967 0,1.41422 0.16667,0.5 0.57928,0.9029 0.70711,1.41421 0.0861,0.3445 -0.18695,2.45453 0,2.82843 0.14907,0.29814 0.55803,0.40896 0.7071,0.7071 0.10541,0.21082 0,0.47141 0,0.70711 0,0.2357 0,0.47141 0,0.70711 0,0.94281 0,1.88562 0,2.82843 0,1.41421 0,2.82842 0,4.24264 0,0.46464 0.13299,1.72237 0,2.12132 -0.16666,0.5 -0.41475,0.97568 -0.7071,1.41421 -0.19981,0.29972 -1.82876,1.97504 -2.12132,2.12132 -0.56569,0.28284 -1.55564,-0.28284 -2.12132,0 -0.29815,0.14907 -0.40897,0.55804 -0.70711,0.70711 -2.08088,1.04044 0.93096,-1.63807 -1.41421,0.7071"
       id="path3974"
       inkscape:connector-curvature="0" />
    <path
       style="fill:none;stroke:#000000;stroke-width:1px;stroke-linecap:butt;stroke-linejoin:miter;stroke-opacity:1"
       d="m 400.92955,303.5361 c 5.12693,-10.25387 -1.49072,2.23607 2.82842,-4.24264 0.13075,-0.19612 -0.10541,-0.49629 0,-0.70711 0.14907,-0.29814 0.47141,-0.4714 0.70711,-0.7071 0.2357,-0.23571 0.42976,-0.52221 0.70711,-0.70711 0.87705,-0.58471 1.95136,-0.82951 2.82842,-1.41421 0.27735,-0.1849 0.40897,-0.55804 0.70711,-0.70711 0.25571,-0.12786 3.04371,0 3.53553,0 1.17851,0 2.35703,0 3.53554,0 0.2357,0 0.4714,0 0.7071,0 0.23571,0 0.49629,-0.10541 0.70711,0 0.2529,0.12645 2.63239,2.53437 2.82843,2.82843 0.29235,0.43853 0.41475,0.97568 0.7071,1.41421 0.1849,0.27735 0.55804,0.40896 0.70711,0.70711 0.21082,0.42163 -0.14907,0.967 0,1.41421 0.16667,0.5 0.54044,0.91421 0.70711,1.41421 0.22361,0.67082 -0.1715,1.43533 0,2.12132 0.12783,0.51131 0.54044,0.91422 0.70711,1.41422 0.13298,0.39895 0,1.65667 0,2.12132 0,1.17851 0,2.35702 0,3.53553 0,0.36976 0.093,2.6425 0,2.82843 -0.14908,0.29814 -0.55804,0.40896 -0.70711,0.70711 -0.10541,0.21081 0.10541,0.49628 0,0.7071 -0.14907,0.29815 -0.55804,0.40897 -0.70711,0.70711 -0.28284,0.56569 0.28284,1.55563 0,2.12132 -0.29814,0.59629 -1.11607,0.81793 -1.41421,1.41421 -0.10541,0.21082 0.10541,0.49629 0,0.70711 -0.14907,0.29814 -0.47141,0.47141 -0.70711,0.70711 -0.2357,0.2357 -0.4714,0.4714 -0.70711,0.7071 -0.2357,0.23571 -0.4714,0.94281 -0.7071,0.70711 -0.2357,-0.2357 0.7071,-1.04044 0.7071,-0.70711 0,0.85618 -0.87592,1.58303 -1.41421,2.12132"
       id="path3976"
       inkscape:connector-curvature="0" />
    <path
       style="fill:none;stroke:#000000;stroke-width:1px;stroke-linecap:butt;stroke-linejoin:miter;stroke-opacity:1"
       d="m 405.87929,297.17214 c 2.42732,0.55411 2.04482,-2.79018 3.53554,-3.53553 0.21081,-0.10541 0.49628,0.10541 0.7071,0 0.29815,-0.14907 0.40897,-0.55804 0.70711,-0.70711 0.21082,-0.10541 0.4835,0.0745 0.70711,0 0.5,-0.16667 0.91421,-0.54044 1.41421,-0.70711 0.48637,-0.16212 1.70411,0.20861 2.12132,0 0.29814,-0.14907 0.40897,-0.55803 0.70711,-0.7071 0.21082,-0.10541 0.4714,0 0.7071,0 0.23571,-0.23571 0.40897,-0.55804 0.70711,-0.70711 0.56569,-0.28284 1.55564,0.28284 2.12132,0 0.29814,-0.14907 0.40897,-0.55804 0.70711,-0.70711 0.42164,-0.21082 0.99257,0.21082 1.41421,0 0.29814,-0.14907 0.40897,-0.55803 0.70711,-0.7071 0.56568,-0.28285 1.55563,0.28284 2.12132,0 0.29814,-0.14908 0.40896,-0.55804 0.70711,-0.70711 0.42163,-0.21082 0.99257,0.21082 1.41421,0 0.29814,-0.14907 0.40896,-0.55804 0.70711,-0.70711 0.21081,-0.10541 0.49628,0.10541 0.7071,0 0.29815,-0.14907 0.40897,-0.55803 0.70711,-0.7071 0.42164,-0.21082 0.99258,0.21081 1.41421,0 0.29815,-0.14908 0.40897,-0.55804 0.70711,-0.70711 0.21082,-0.10541 0.49629,0.10541 0.70711,0 0.29814,-0.14907 0.40896,-0.55804 0.7071,-0.70711 0.56569,-0.28284 1.55564,0.28284 2.12132,0 0.29815,-0.14907 0.40897,-0.55803 0.70711,-0.70711 0.21082,-0.1054 0.49629,0.10541 0.70711,0 0.29814,-0.14907 0.42975,-0.5222 0.7071,-0.7071 5.12694,-2.56347 -1.11803,0.74535 2.12132,-1.41422 0.43853,-0.29235 0.97569,-0.41475 1.41422,-0.7071 0.34283,-0.22856 3.30698,-3.1927 3.53553,-3.53554 0.29235,-0.43853 0.41476,-0.97568 0.70711,-1.41421 0.3698,-0.5547 1.04441,-0.85951 1.41421,-1.41421 0.29235,-0.43853 0.41476,-0.97569 0.70711,-1.41422 0.3698,-0.5547 1.11607,-0.81793 1.41421,-1.41421 0.10541,-0.21082 -0.10541,-0.49629 0,-0.70711 0.14907,-0.29814 0.55804,-0.40896 0.70711,-0.7071 0.10541,-0.21082 -0.10541,-0.49629 0,-0.70711 0.14907,-0.29814 0.52221,-0.42976 0.70711,-0.70711 0.5847,-0.87706 0.8295,-1.95137 1.41421,-2.82842 0.1849,-0.27735 0.55804,-0.40897 0.70711,-0.70711 0.10541,-0.21082 -0.0745,-0.4835 0,-0.70711 0.2357,-0.4714 0.4714,-0.94281 0.7071,-1.41421 0,-0.2357 -0.0745,-0.4835 0,-0.70711 0.16667,-0.5 0.54044,-0.91421 0.70711,-1.41421 0.0745,-0.22361 -0.0745,-0.4835 0,-0.70711 0.33333,-1 1.08088,-1.82843 1.41421,-2.82843 0.14907,-0.44721 -0.14907,-0.967 0,-1.41421 2.19234,-4.38468 0.09,0.34699 0.70711,-2.12132 0.18078,-0.7231 0.52633,-1.39822 0.70711,-2.12132 0.0572,-0.22867 -0.0745,-0.4835 0,-0.70711 0.16666,-0.5 0.54044,-0.91421 0.7071,-1.41421 0.0745,-0.22361 0,-0.47141 0,-0.70711 0,-0.4714 0,-0.94281 0,-1.41421 0,-0.47141 -0.11433,-0.95689 0,-1.41421 0.12783,-0.51131 0.54044,-0.91422 0.70711,-1.41422 0.0745,-0.2236 0,-0.4714 0,-0.7071 0,-0.64232 -0.15301,-4.49072 0,-4.94975 1.04044,-3.12132 0.70711,2.56903 0.70711,-2.12132 0,-0.36976 -0.093,-2.6425 0,-2.82843 0.14907,-0.29814 0.37377,-0.70711 0.7071,-0.70711 0.23571,0 0,0.47141 0,0.70711 0,0.2357 0,0.4714 0,0.70711 0,1.41421 0,2.82842 0,4.24264 0,1.88562 0,3.77123 0,5.65685 0,0.56925 -0.14793,2.38461 0,2.82843 0.16667,0.5 0.57928,0.9029 0.70711,1.41421 0.13792,0.55167 0,3.41733 0,4.24264 0,2.82843 0,5.65686 0,8.48528 0,0.83065 -0.29094,5.65686 0.70711,5.65686 0.52704,0 0.41475,-0.97569 0.7071,-1.41421 0.19367,-0.2905 1.83083,-1.92766 2.12133,-2.12133 0.43852,-0.29235 0.97568,-0.41475 1.41421,-0.7071 0.61016,-0.40678 1.56901,-1.56901 2.12132,-2.12132 0.2357,-0.2357 0.40896,-0.55804 0.70711,-0.70711 0.21081,-0.10541 0.4835,0.0745 0.7071,0 0.5,-0.16667 0.91422,-0.54044 1.41422,-0.70711 0.2236,-0.0745 0.49628,0.10541 0.7071,0 0.29815,-0.14907 0.40897,-0.55803 0.70711,-0.7071 0.2152,-0.1076 1.80287,0 2.12132,0 1.88562,0 3.77124,0 5.65685,0 0.27953,0 3.23354,0.15099 3.53554,0 0.29814,-0.14907 0.40896,-0.55804 0.7071,-0.70711 0.21082,-0.10541 0.47141,0 0.70711,0 0.2357,0 0.47141,0 0.70711,0 0.2357,0 0.4835,0.0745 0.70711,0 0.5,-0.16667 0.88716,-0.70711 1.41421,-0.70711 0.33333,0 -0.47141,0.94281 -0.70711,0.70711 -0.2357,-0.2357 0.94281,-0.94281 0.70711,-0.70711 -0.47141,0.47141 -0.94281,0.94281 -1.41421,1.41422 -0.23571,0.2357 -0.42976,0.5222 -0.70711,0.7071 -1.21878,0.81252 -1.06885,0.70711 -2.12132,0.70711 -0.2357,0 -0.49629,-0.10541 -0.70711,0 -0.29814,0.14907 -0.40896,0.55804 -0.70711,0.70711 -0.42163,0.21082 -0.99257,-0.21082 -1.41421,0 -0.29814,0.14907 -0.40896,0.55803 -0.70711,0.7071 -0.21081,0.10541 -0.4714,0 -0.7071,0 -0.47141,0 -0.967,-0.14907 -1.41422,0 -0.31622,0.10541 -0.40896,0.55804 -0.7071,0.70711 -0.21082,0.10541 -0.49629,-0.10541 -0.70711,0 -0.29814,0.14907 -0.40896,0.55804 -0.70711,0.70711 -0.21081,0.10541 -0.4714,0 -0.7071,0 -0.23571,0.2357 -0.42976,0.5222 -0.70711,0.7071 -0.4714,0.23571 -0.94281,0.47141 -1.41421,0.70711 -0.23571,0 -0.49629,-0.10541 -0.70711,0 -0.29814,0.14907 -0.40896,0.55804 -0.70711,0.70711 -0.21082,0.10541 -0.49629,-0.10541 -0.7071,0 -3.23615,1.61807 3.00054,-0.29308 -2.12132,1.41421 -0.22361,0.0745 -0.49629,-0.10541 -0.70711,0 -0.59629,0.29814 -0.85951,1.04442 -1.41421,1.41422 -0.43853,0.29235 -0.97569,0.41475 -1.41422,0.7071 -0.2357,0.2357 -0.4714,0.47141 -0.7071,0.70711 -0.23571,0.2357 -0.42976,0.52221 -0.70711,0.70711 -0.43853,0.29235 -0.97569,0.41475 -1.41422,0.7071 -2.63214,1.75476 1.21793,-0.34054 -1.41421,1.41422 -0.43853,0.29235 -0.97568,0.41475 -1.41421,0.7071 -0.27735,0.1849 -0.47141,0.47141 -0.70711,0.70711 -0.70711,0.70711 -1.41421,1.41421 -2.12132,2.12132 -0.55231,0.55231 -1.71454,1.51116 -2.12132,2.12132 -0.29235,0.43853 -0.41475,0.97569 -0.70711,1.41421 -0.3097,0.46456 -1.99375,1.73861 -2.12132,2.12132 -0.14907,0.44722 0.14907,0.967 0,1.41422 -0.14401,0.43204 -2.43111,2.23246 -2.82842,2.82843 -0.23571,0.4714 -0.47141,0.9428 -0.70711,1.41421 0,0.2357 0.10541,0.49629 0,0.70711 -0.29814,0.59628 -1.11607,0.81792 -1.41421,1.41421 -0.10541,0.21082 0.1054,0.49629 0,0.70711 -0.14908,0.29814 -0.55804,0.40896 -0.70711,0.7071 -0.10541,0.21082 0.10541,0.49629 0,0.70711 -0.14907,0.29814 -0.55804,0.40896 -0.70711,0.70711 -0.10541,0.21081 0.10541,0.49628 0,0.7071 -0.14907,0.29815 -0.5222,0.42976 -0.7071,0.70711 -0.29236,0.43853 -0.41476,0.97568 -0.70711,1.41421 -0.69366,1.04049 -2.13477,1.78794 -2.82843,2.82843 -0.29235,0.43853 -0.41475,0.97569 -0.70711,1.41421 -0.3698,0.5547 -0.9428,0.94281 -1.41421,1.41422 -0.41588,0.41588 -2.6647,2.50098 -2.82843,2.82842 -0.10541,0.21082 0.10541,0.49629 0,0.70711 -0.29814,0.59629 -1.11607,0.81793 -1.41421,1.41422 -0.10541,0.21081 0.10541,0.49628 0,0.7071 -0.14907,0.29814 -0.55804,0.40897 -0.70711,0.70711 -0.10541,0.21082 0.10541,0.49629 0,0.70711 -0.29814,0.59628 -1.04441,0.85951 -1.41421,1.41421 -0.29235,0.43853 -0.41475,0.97568 -0.70711,1.41421 -0.3698,0.5547 -1.11607,0.81793 -1.41421,1.41422 -0.10541,0.21081 0.10541,0.49628 0,0.7071 -0.31337,0.62674 -1.69219,1.47763 -2.12132,2.12132 -2.05888,3.08832 0.31339,-0.23307 -0.70711,2.82843 -0.10541,0.31623 -0.55803,0.40896 -0.7071,0.70711 -0.10541,0.21082 0.1054,0.49629 0,0.7071 -0.29815,0.59629 -1.11608,0.81793 -1.41422,1.41422 -0.10541,0.21082 0.10541,0.49629 0,0.7071 -0.16372,0.32745 -2.41254,2.41255 -2.82843,2.82843"
       id="path3978"
       inkscape:connector-curvature="0" />
    <path
       style="fill:none;stroke:#000000;stroke-width:1px;stroke-linecap:butt;stroke-linejoin:miter;stroke-opacity:1"
       d="m 371.93817,328.28484 c -0.20657,0.82628 -1.00536,3.04962 -0.70711,4.24264 0.12783,0.51131 0.41475,0.97568 0.70711,1.41421 0.23021,0.34532 2.48311,2.59822 2.82842,2.82843 0.43853,0.29235 0.97569,0.41475 1.41422,0.70711 1.29382,0.86254 0.0705,0.90152 2.12132,1.41421 0.91466,0.22866 1.91377,-0.22866 2.82843,0 0.51131,0.12783 0.9029,0.57928 1.41421,0.70711 0.45733,0.11433 0.94281,0 1.41421,0 0.47141,0 0.94281,0 1.41422,0 0.54378,0 3.58853,0.16352 4.24264,0 0.7231,-0.18078 1.39822,-0.52633 2.12132,-0.70711 0.22866,-0.0572 0.49629,0.10541 0.7071,0 0.29815,-0.14907 0.40897,-0.55804 0.70711,-0.70711 0.21082,-0.10541 0.49629,0.10541 0.70711,0 1.07832,-0.53916 0.7071,-1.85819 0.7071,-2.82842 0,-1.17851 0,-2.35703 0,-3.53554 0,-0.46464 0.13299,-1.72237 0,-2.12132 -0.42808,-1.28426 -0.60517,-1.31228 -1.41421,-2.12132 -0.2357,-0.2357 -0.40896,-0.55803 -0.70711,-0.70711 -0.21081,-0.1054 -0.4714,0 -0.7071,0 -0.23571,0 -0.47141,0 -0.70711,0 -1.17851,0 -2.35702,0 -3.53553,0 -1.41422,0 -2.82843,0 -4.24264,0 -0.70711,0 -1.42384,-0.11624 -2.12132,0 -0.73522,0.12254 -1.39822,0.52634 -2.12133,0.70711 -0.22866,0.0572 -0.49628,-0.10541 -0.7071,0 -0.29814,0.14907 -0.40897,0.55804 -0.70711,0.70711 -0.50742,0.25371 -2.12132,-0.67272 -2.12132,0.70711 0,0.4714 0.94281,0 1.41421,0 1.59753,0 -0.31622,-0.10541 2.12132,0.7071 0.22361,0.0745 0.4835,-0.0745 0.70711,0 0.5,0.16667 0.91422,0.54044 1.41422,0.70711 0.44721,0.14907 0.99257,-0.21082 1.41421,0 0.59628,0.29814 0.81793,1.11607 1.41421,1.41421 0.21082,0.10541 0.49629,-0.10541 0.70711,0 0.29814,0.14907 0.4714,0.47141 0.70711,0.70711 0.2357,0.2357 0.7071,0.37377 0.7071,0.70711 0,1.31112 -4.17815,0.4499 -4.94974,0.7071 -0.5,0.16667 -0.88717,0.70711 -1.41422,0.70711 -0.2357,0 0,-0.4714 0,-0.70711 0,-0.4714 0,-0.94281 0,-1.41421 0,-1.65829 -0.16667,0.33333 0.70711,-1.41421 0.21082,-0.42164 -0.21082,-0.99258 0,-1.41422 0.18883,-0.37765 1.74905,-1.74905 2.12132,-2.12132"
       id="path3980"
       inkscape:connector-curvature="0" />
  </g>
</svg>
